<?xml version="1.0" standalone="no"?>
<!DOCTYPE svg PUBLIC "-//W3C//DTD SVG 20010904//EN"
 "http://www.w3.org/TR/2001/REC-SVG-20010904/DTD/svg10.dtd">
<svg version="1.0" xmlns="http://www.w3.org/2000/svg"
 width="2734.000000pt" height="2734.000000pt" viewBox="0 0 2734.000000 2734.000000"
 preserveAspectRatio="xMidYMid meet">
<metadata>
Created by potrace 1.14, written by Peter Selinger 2001-2017
</metadata>
<g transform="translate(0.000000,2734.000000) scale(0.100000,-0.100000)"
fill="#000000" stroke="none">
<path d="M16770 26240 c-608 -5 -1955 -16 -2995 -24 -5576 -48 -7875 -49
-9307 -5 -302 9 -411 9 -500 0 -549 -59 -1049 -180 -1528 -368 -1062 -417
-1848 -1146 -2175 -2018 -187 -499 -231 -968 -256 -2770 -18 -1303 0 -2879 81
-7155 31 -1636 53 -2869 70 -3935 6 -352 13 -1281 17 -2065 7 -1674 -6 -2563
-48 -3275 -17 -287 -16 -292 30 -478 399 -1603 1975 -2810 3911 -2997 855 -82
17395 -91 19085 -10 1283 61 2640 713 3422 1643 397 471 624 981 662 1482 60
800 94 4188 94 9460 0 4672 -24 7671 -73 9020 -19 530 -35 647 -121 908 -180
549 -597 1111 -1164 1566 -632 508 -1395 842 -2135 935 -264 33 -743 57 -1545
77 -551 13 -4120 19 -5525 9z m-1335 -6083 c429 -49 789 -131 1127 -255 766
-283 1386 -750 1821 -1373 437 -628 647 -1347 647 -2219 0 -1057 -315 -1909
-961 -2606 -395 -425 -893 -753 -1483 -976 -258 -97 -625 -191 -911 -232 -346
-50 -311 -49 -1822 -53 l-1423 -4 0 -2285 0 -2284 -1190 0 -1190 0 0 6155 0
6156 2618 -4 c2400 -3 2629 -4 2767 -20z"/>
<path d="M12430 16310 l0 -1921 1248 4 c1143 3 1256 4 1352 21 669 114 1157
451 1425 985 85 170 147 388 176 621 16 124 16 459 0 580 -58 438 -228 798
-511 1080 -293 294 -701 481 -1167 535 -107 13 -326 15 -1325 15 l-1198 0 0
-1920z"/>
</g>
</svg>
